<svg width="24" height="24" viewBox="0 0 24 24" fill="none" xmlns="http://www.w3.org/2000/svg">
<mask id="mask0_619_37117" style="mask-type:alpha" maskUnits="userSpaceOnUse" x="0" y="0" width="24" height="24">
<rect x="0.75" y="0.75" width="22.5" height="22.5" fill="#D9D9D9" stroke="#063A74" stroke-width="1.5"/>
</mask>
<g mask="url(#mask0_619_37117)">
<path d="M21 21.0022L15.3189 15.3205M15.0163 5.03295C16.34 6.35712 17.0836 8.1529 17.0836 10.0254C17.0836 11.8978 16.34 13.6936 15.0163 15.0178C13.0437 16.9906 8.57379 18.5593 5.0327 15.0178C3.72416 13.6905 2.99348 11.8996 3.00004 10.0356C3.0066 8.17171 3.74987 6.38599 5.06772 5.06798C6.38557 3.74996 8.17106 3.00661 10.0348 3.00004C11.8985 2.99348 13.6892 3.72425 15.0163 5.03295Z" stroke="#063A74" stroke-width="1.5" stroke-linejoin="round"/>
<path d="M5.43066 10.8203L9.714 7.27537C9.714 7.27537 13.3802 10.6461 13.4394 10.6461L20.0831 5.18359" stroke="#063A74" stroke-width="1.5" stroke-linejoin="round"/>
<path d="M15.0163 5.03295C16.34 6.35712 17.0836 8.1529 17.0836 10.0254C17.0836 11.8978 16.34 13.6936 15.0163 15.0178C13.0437 16.9906 8.57379 18.5593 5.0327 15.0178C3.72416 13.6905 2.99348 11.8996 3.00004 10.0356C3.0066 8.17171 3.74987 6.38599 5.06772 5.06798C6.38557 3.74996 8.17106 3.00661 10.0348 3.00004C11.8985 2.99348 13.6892 3.72425 15.0163 5.03295ZM21 21.0022L15.3189 15.3205L21 21.0022Z" fill="white"/>
<path d="M21 21.0022L15.3189 15.3205M15.0163 5.03295C16.34 6.35712 17.0836 8.1529 17.0836 10.0254C17.0836 11.8978 16.34 13.6936 15.0163 15.0178C13.0437 16.9906 8.57379 18.5593 5.0327 15.0178C3.72416 13.6905 2.99348 11.8996 3.00004 10.0356C3.0066 8.17171 3.74987 6.38599 5.06772 5.06798C6.38557 3.74996 8.17106 3.00661 10.0348 3.00004C11.8985 2.99348 13.6892 3.72425 15.0163 5.03295Z" stroke="#063A74" stroke-width="1.5" stroke-linejoin="round"/>
<path d="M5.43066 10.8203L9.714 7.27537C9.714 7.27537 13.3802 10.6461 13.4394 10.6461L20.0831 5.18359" stroke="#063A74" stroke-width="1.5" stroke-linejoin="round"/>
</g>
</svg>
