<svg width="24" height="24" viewBox="0 0 24 24" fill="none" xmlns="http://www.w3.org/2000/svg">
<mask id="mask0_4_5743" style="mask-type:luminance" maskUnits="userSpaceOnUse" x="0" y="0" width="24" height="24">
<path d="M24 0H0V24H24V0Z" fill="white"/>
</mask>
<g mask="url(#mask0_4_5743)">
<path d="M16.7283 9.2341L10.6118 15.3506C10.275 15.687 9.81856 15.876 9.34258 15.876C8.86661 15.876 8.41008 15.687 8.07336 15.3506C7.73677 15.014 7.54768 14.5575 7.54768 14.0815C7.54768 13.6055 7.73677 13.1489 8.07336 12.8123L14.3222 6.56341C14.6451 6.2404 15.0285 5.98417 15.4505 5.80936C15.8725 5.63455 16.3248 5.5446 16.7815 5.5446C17.2383 5.5446 17.6906 5.63455 18.1125 5.80936C18.5345 5.98417 18.9179 6.2404 19.2409 6.56341C19.5639 6.88635 19.8201 7.26975 19.9949 7.69172C20.1697 8.1137 20.2597 8.56599 20.2597 9.02274C20.2597 9.47949 20.1697 9.93178 19.9949 10.3538C19.8201 10.7757 19.5639 11.1591 19.2409 11.4821L12.5509 18.1729C12.0716 18.6521 11.5027 19.0323 10.8765 19.2916C10.2503 19.551 9.57915 19.6845 8.90138 19.6845C8.22361 19.6845 7.5525 19.551 6.92633 19.2916C6.30015 19.0323 5.73118 18.6521 5.25194 18.1729C4.77267 17.6936 4.39251 17.1246 4.13313 16.4984C3.87376 15.8723 3.74023 15.2011 3.74023 14.5233C3.74023 13.8456 3.87376 13.1745 4.13313 12.5483C4.39251 11.9222 4.77267 11.3531 5.25194 10.8739L11.8104 4.31543" stroke="#8A949E" stroke-width="1.5" stroke-linecap="round" stroke-linejoin="round"/>
</g>
</svg>
