<svg width="78" height="49" viewBox="0 0 78 49" fill="none" xmlns="http://www.w3.org/2000/svg">
<rect x="9" y="2" width="61" height="45" rx="6" fill="white"/>
<path d="M68 11.5V8C68 4.68629 65.3137 2 62 2H15C11.6863 2 9 4.68629 9 8V41C9 44.3137 11.6863 47 15 47H62C65.3137 47 68 44.3137 68 41V39.5" stroke="#298DFF" stroke-width="4"/>
<path d="M11 15H54" stroke="#298DFF" stroke-width="2"/>
<circle cx="21" cy="9" r="2" fill="#006EFC"/>
<circle cx="28" cy="9" r="2" fill="#006EFC"/>
<circle cx="35" cy="9" r="2" fill="#006EFC"/>
<rect x="1" y="22" width="41" height="17" rx="3" fill="white" stroke="#298DFF" stroke-width="2"/>
<path d="M33.3037 34.7393H31.376L31.5605 31.9092L29.2021 33.4883L28.2383 31.8271L30.7812 30.5762L28.2383 29.3047L29.2021 27.6436L31.5605 29.2227L31.376 26.3926H33.3037L33.1191 29.2227L35.4775 27.6436L36.4414 29.3047L33.8984 30.5762L36.4414 31.8271L35.4775 33.4883L33.1191 31.9092L33.3037 34.7393Z" fill="#006EFC"/>
<path d="M23.0342 34.7393H21.1064L21.291 31.9092L18.9326 33.4883L17.9688 31.8271L20.5117 30.5762L17.9688 29.3047L18.9326 27.6436L21.291 29.2227L21.1064 26.3926H23.0342L22.8496 29.2227L25.208 27.6436L26.1719 29.3047L23.6289 30.5762L26.1719 31.8271L25.208 33.4883L22.8496 31.9092L23.0342 34.7393Z" fill="#006EFC"/>
<path d="M12.7627 34.7393H10.835L11.0195 31.9092L8.66113 33.4883L7.69727 31.8271L10.2402 30.5762L7.69727 29.3047L8.66113 27.6436L11.0195 29.2227L10.835 26.3926H12.7627L12.5781 29.2227L14.9365 27.6436L15.9004 29.3047L13.3574 30.5762L15.9004 31.8271L14.9365 33.4883L12.5781 31.9092L12.7627 34.7393Z" fill="#006EFC"/>
<path d="M74.2173 20.5364H73.3794V17.5316C73.3794 12.8196 69.5615 9 64.8516 9C60.1417 9 56.3239 12.8196 56.3239 17.5316V20.5364H55.4859C53.5606 20.5364 52 22.0976 52 24.0239V37.4748C52 39.401 53.5606 40.9623 55.4859 40.9623H74.2173C76.1427 40.9623 77.7032 39.401 77.7032 37.4748V24.0239C77.7032 22.0976 76.1427 20.5364 74.2173 20.5364ZM65.8967 30.9024L66.6146 35.9182H63.0934L63.8113 30.9024C62.6085 30.4738 61.747 29.3246 61.747 27.973C61.747 26.2563 63.1381 24.8646 64.854 24.8646C66.5699 24.8646 67.961 26.2563 67.961 27.973C67.961 29.3246 67.0995 30.4738 65.8967 30.9024ZM70.2888 20.5364H59.4144V17.5316C59.4144 14.5315 61.8529 12.0919 64.8516 12.0919C67.8503 12.0919 70.2888 14.5315 70.2888 17.5316V20.5364Z" fill="#006EFC"/>
</svg>
