<svg width="70" height="70" viewBox="0 0 70 70" fill="none" xmlns="http://www.w3.org/2000/svg">
<path d="M11.0137 4.94141L17.5155 15.567C7.55017 17.8831 0 28.7499 0 39.2316V39.7781C0 48.8223 7.3388 56.1527 16.3934 56.1527H35.7584C44.813 56.1527 52.1518 48.8223 52.1518 39.7781V39.2316C52.1518 28.7499 44.6017 17.8831 34.6363 15.567L41.3964 4.94141" fill="url(#paint0_linear_2274_59386)"/>
<path d="M21.0877 5.04838C21.0877 2.26028 18.7999 0 15.9775 0C13.1552 0 10.8674 2.26028 10.8674 5.04838" fill="url(#paint1_linear_2274_59386)"/>
<path d="M31.3047 5.04838C31.3047 2.26028 29.017 0 26.1946 0C23.3722 0 21.0845 2.26028 21.0845 5.04838" fill="url(#paint2_linear_2274_59386)"/>
<path d="M41.5217 5.04838C41.5217 2.26028 39.234 0 36.4116 0C33.5893 0 31.3015 2.26028 31.3015 5.04838" fill="url(#paint3_linear_2274_59386)"/>
<path d="M17.5627 15.5039H34.6897" stroke="#063A74" stroke-width="3" stroke-linecap="round" stroke-linejoin="round"/>
<path d="M17.4702 28.8633L21.6478 43.2951L26.2052 28.8633L31.2564 43.2951L34.1807 28.8633" stroke="white" stroke-width="2" stroke-linecap="round" stroke-linejoin="round"/>
<path d="M13.6721 36.4609H18.9891" stroke="white" stroke-width="2" stroke-linecap="round" stroke-linejoin="round"/>
<path d="M33.4209 36.4609H38.7379" stroke="white" stroke-width="2" stroke-linecap="round" stroke-linejoin="round"/>
<rect x="25.9231" y="41.1406" width="43.2953" height="28.8635" rx="4" fill="#34417A"/>
<path d="M64.6305 65.1914H60.3374" stroke="#F5F5F5" stroke-width="2" stroke-linecap="round" stroke-linejoin="round"/>
<rect x="28.5132" y="58.5273" width="6.66082" height="4.44054" rx="2" fill="#F5F5F5"/>
<rect x="37.0244" y="58.5273" width="4.44054" height="4.44054" rx="2" fill="#1C63E0"/>
<rect x="25.9231" y="48.5352" width="43.2953" height="7.03086" fill="#4378EF"/>
<defs>
<linearGradient id="paint0_linear_2274_59386" x1="52.1518" y1="59.2079" x2="-10.7419" y2="40.5182" gradientUnits="userSpaceOnUse">
<stop stop-color="#705DEB"/>
<stop offset="1" stop-color="#5C8EE7"/>
</linearGradient>
<linearGradient id="paint1_linear_2274_59386" x1="21.0877" y1="5.34956" x2="11.1441" y2="-0.524592" gradientUnits="userSpaceOnUse">
<stop stop-color="#7742D9"/>
<stop offset="1" stop-color="#328CDF"/>
</linearGradient>
<linearGradient id="paint2_linear_2274_59386" x1="31.3047" y1="5.34956" x2="21.3611" y2="-0.524592" gradientUnits="userSpaceOnUse">
<stop stop-color="#7742D9"/>
<stop offset="1" stop-color="#328CDF"/>
</linearGradient>
<linearGradient id="paint3_linear_2274_59386" x1="41.5217" y1="5.34956" x2="31.5781" y2="-0.524587" gradientUnits="userSpaceOnUse">
<stop stop-color="#7742D9"/>
<stop offset="1" stop-color="#328CDF"/>
</linearGradient>
</defs>
</svg>
